<?xml version="1.0" encoding="utf-8"?>
<!-- Generator: Adobe Illustrator 16.0.0, SVG Export Plug-In . SVG Version: 6.00 Build 0)  -->
<!DOCTYPE svg PUBLIC "-//W3C//DTD SVG 1.1//EN" "http://www.w3.org/Graphics/SVG/1.1/DTD/svg11.dtd">
<svg version="1.1" id="Capa_1" xmlns="http://www.w3.org/2000/svg" xmlns:xlink="http://www.w3.org/1999/xlink" x="0px" y="0px"
	 width="35px" height="54px" viewBox="0 0 35 54" style="enable-background:new 0 0 35 54;" xml:space="preserve">
<style type="text/css">
<![CDATA[
	.st0{fill-rule:evenodd;clip-rule:evenodd;fill:#F9F9FB;}
	.st1{fill:#0097CC;}
	.st2{fill-rule:evenodd;clip-rule:evenodd;fill:#0097CC;}
]]>
</style>
<g>
	<path class="st1" d="M17.6,0C7.9,0,0,7.9,0,17.5C0,20.3,0.9,24,2.8,28C9.2,37.9,16,45.4,17.6,54c4.3-14.9,11.1-17.8,15.3-27
		c1.7-4,2.1-6.8,2.1-9.6C35,7.7,27.3,0,17.6,0z"/>
	<path class="st0" d="M2.8,17.6c0-8.2,6.6-14.9,14.8-14.9s14.8,6.7,14.8,14.9c0,8.2-6.6,14.9-14.8,14.9S2.8,25.9,2.8,17.6z"/>
	<g>
		<path class="st2" d="M15,19.9c-3-1.4-4.7-3.5-4.7-7.1H5.6v9.6h6.9v2.4l0,0.8v4.1h5.5c3.3,0,5.1-2,4.7-4.5
			C22.1,21.4,17.8,21.1,15,19.9z"/>
		<path class="st2" d="M20.3,15.3c3,1.4,4.7,3.5,4.7,7.1h4.7v-9.6h-6.9v-2.3l0-0.8V5.5h-5.5c-3.3,0-5.1,2-4.7,4.5
			C13.1,13.8,17.5,14.1,20.3,15.3z"/>
	</g>
</g>
</svg>
